Coordinates
version=1
nRows=4
nColumns=40
inDegrees=yes

Units are S.I. units (second, meters, Newtons, ...)
If the header above contains a line with 'inDegrees', this indicates whether rotational values are in degrees (yes) or radians (no).

endheader
time	pelvis_tilt	pelvis_list	pelvis_rotation	pelvis_tx	pelvis_ty	pelvis_tz	hip_flexion_r	hip_adduction_r	hip_rotation_r	knee_angle_r	knee_angle_r_beta	ankle_angle_r	subtalar_angle_r	mtp_angle_r	hip_flexion_l	hip_adduction_l	hip_rotation_l	knee_angle_l	knee_angle_l_beta	ankle_angle_l	subtalar_angle_l	mtp_angle_l	lumbar_extension	lumbar_bending	lumbar_rotation	arm_flex_r	arm_add_r	arm_rot_r	elbow_flex_r	pro_sup_r	wrist_flex_r	wrist_dev_r	arm_flex_l	arm_add_l	arm_rot_l	elbow_flex_l	pro_sup_l	wrist_flex_l	wrist_dev_l
     11.05000000000000071054	     -0.14044417859885433009	     -3.73278059103997295054	   -179.39942246241386669681	      0.18258730731053596230	      0.86858752668126093521	     -0.91593796137265603985	     13.25406635203247063259	    -32.89263542202687062854	    -27.39058128667254976563	     12.20869858695798448878	      0.21308198772599606929	    -17.51163750669982377417	      0.00000000000000000000	      0.00000000000000000000	      9.10303659854810476304	    -23.90723329272365305087	    -31.06267880460979924351	     10.12603874846946716559	      0.17673271634531811936	    -14.08577744507587325984	      0.00000000000000000000	      0.00000000000000000000	    -23.47653342923172203882	     -1.24203302230439094345	     -6.86762109868494885490	     22.14948285170873276684	     -3.10280596736867542162	     34.47721516240828520949	      5.35709983243399179287	     18.21159278431520789354	      0.00000000000000000000	      0.00000000000000000000	     24.31238209721596277291	     -7.07904499035050349676	     70.91629931729430325049	      7.61500893153190894225	     76.71996713780013976702	      0.00000000000000000000	      0.00000000000000000000
     11.05499999999999971578	     -0.28414546811531826709	     -4.20842139835112405422	   -179.34441338081595063159	      0.18170349256306222996	      0.86887074367080641135	     -0.91538040291939382076	     12.98263529728321685752	    -33.37856030922347372325	    -26.98855169855223223863	     12.05456969284593427005	      0.21039193105128309313	    -17.44585210977737688154	      0.00000000000000000000	      0.00000000000000000000	      8.68586978704293777298	    -23.24632197276073597436	    -31.20952249125632960158	      9.74532251235207347406	      0.17008796450926944033	    -14.17316741714905781180	      0.00000000000000000000	      0.00000000000000000000	    -23.05942142946103956547	     -1.69980640289289941514	     -6.94959498794639873864	     21.79109091327093139512	     -3.21702753080018899468	     34.54365423204785656708	      5.38385463358712534898	     18.24620138158292448338	      0.00000000000000000000	      0.00000000000000000000	     24.06899075415688571411	     -7.06607368006729696930	     70.89358777257487531642	      7.69478684904614773643	     76.68868213764724828252	      0.00000000000000000000	      0.00000000000000000000
     11.06000000000000049738	     -0.37770137392315950020	     -4.46650006931100040930	   -179.19530228944822169979	      0.18090347624156080664	      0.86909242927076091334	     -0.91467321978235938129	     12.64874357726075260189	    -33.62559974557271402773	    -26.76084842469126101605	     11.85539321344483276732	      0.20691564569320319844	    -17.33388778208634306566	      0.00000000000000000000	      0.00000000000000000000	      8.46786656930362546802	    -22.84977022457265150024	    -31.18167870739379310407	      9.54550986794598266272	      0.16660057597726654621	    -14.06777442725417692770	      0.00000000000000000000	      0.00000000000000000000	    -22.59811166029728823901	     -1.87050172890359411859	     -7.07555466898330109871	     21.50511951727858672712	     -3.35266043293449467200	     34.54017675714069923742	      5.34423540792138851430	     18.25135736657210472345	      0.00000000000000000000	      0.00000000000000000000	     23.76753482798830674483	     -7.01582890329873620772	     70.87995817520832986247	      7.73217703895208163800	     76.68573221953583640698	      0.00000000000000000000	      0.00000000000000000000
     11.06499999999999950262	     -0.54249115184603302620	     -5.07682824793445153233	   -179.16748646289855173563	      0.18012141499144468382	      0.86931703458131126538	     -0.91434967940260503116	     12.47924043955640449610	    -34.29725184593697662194	    -26.26305551085782497012	     11.85482706770287464337	      0.20690576458595988374	    -17.28666978178632263052	      0.00000000000000000000	      0.00000000000000000000	      8.03003584849439278059	    -22.07066995275076948246	    -31.39730895982717839843	      9.17065247754971935024	      0.16005808028941798105	    -14.31988552890309840393	      0.00000000000000000000	      0.00000000000000000000	    -22.22091992874476318320	     -2.51370873757396395831	     -7.09615865808502821466	     21.07852720457121975528	     -3.42953096244463795372	     34.60042022227317204397	      5.44205908944126459659	     18.30674364590148783805	      0.00000000000000000000	      0.00000000000000000000	     23.57267767368783140114	     -7.03524112470439444422	     70.75653399578195035247	      7.81860455488464456408	     76.65618874070911203944	      0.00000000000000000000	      0.00000000000000000000
